<svg width="60" height="60" viewBox="0 0 60 60" fill="none" xmlns="http://www.w3.org/2000/svg">
<path d="M24.4428 46.0984C23.4305 48.4384 23.4885 49.7339 24.4428 52" stroke="#FF4124" stroke-width="4.42623" stroke-linecap="round"/>
<path d="M16.967 43.5164C14.9203 45.0368 14.3228 46.1877 14.0162 48.6274" stroke="#FF4124" stroke-width="4.42623" stroke-linecap="round"/>
<path d="M44.3608 38.6962C46.8831 38.324 48.1194 38.7153 50.0614 40.2237" stroke="#FF4124" stroke-width="4.42623" stroke-linecap="round"/>
<path d="M16.3179 38.6962C13.7956 38.324 12.5593 38.7153 10.6173 40.2237" stroke="#FF4124" stroke-width="4.42623" stroke-linecap="round"/>
<path d="M42.8855 43.5164C44.9322 45.0368 45.5297 46.1877 45.8364 48.6274" stroke="#FF4124" stroke-width="4.42623" stroke-linecap="round"/>
<path d="M35.5084 46.0984C36.5207 48.4384 36.4627 49.7339 35.5084 52" stroke="#FF4124" stroke-width="4.42623" stroke-linecap="round"/>
<path d="M15 40C15 31.7157 21.7157 25 30 25C38.2843 25 45 31.7157 45 40V41.4286C45 45.0579 42.0579 48 38.4286 48H21.5714C17.9421 48 15 45.0579 15 41.4286V40Z" fill="#FF4124"/>
<path d="M21.5246 15.5C22.3394 15.5 23.013 16.1654 22.8723 16.968C22.6487 18.2428 22.1358 19.4564 21.365 20.5122C20.3026 21.9674 18.8052 23.0473 17.089 23.5961C15.3728 24.1449 13.5267 24.1342 11.817 23.5655C10.1073 22.9967 8.62262 21.8994 7.57717 20.432C6.53172 18.9645 5.97962 17.2028 6.00057 15.4012C6.02153 13.5995 6.61445 11.8511 7.69375 10.4083C8.77305 8.9656 10.2829 7.90314 12.0053 7.37433C13.2549 6.99068 14.5695 6.90232 15.8474 7.10746C16.6519 7.23662 17.0608 8.09062 16.7946 8.86076L15.1765 13.5426C14.8453 14.5009 15.5571 15.5 16.571 15.5H21.5246Z" fill="#FF4124"/>
<path d="M13.7723 18C10.9105 23.7692 10.1952 31.0769 22 33" stroke="#FF4124" stroke-width="5.16393"/>
<path d="M38.4754 15.5C37.6606 15.5 36.987 16.1654 37.1277 16.968C37.3513 18.2428 37.8642 19.4564 38.635 20.5122C39.6974 21.9674 41.1948 23.0473 42.911 23.5961C44.6272 24.1449 46.4733 24.1342 48.183 23.5655C49.8927 22.9967 51.3774 21.8994 52.4228 20.432C53.4683 18.9645 54.0204 17.2028 53.9994 15.4012C53.9785 13.5995 53.3856 11.8511 52.3063 10.4083C51.227 8.9656 49.7171 7.90314 47.9947 7.37433C46.7451 6.99068 45.4305 6.90232 44.1526 7.10746C43.3481 7.23662 42.9392 8.09062 43.2054 8.86076L44.8235 13.5426C45.1547 14.5009 44.4429 15.5 43.429 15.5H38.4754Z" fill="#FF4124"/>
<path d="M46.2277 18C49.0895 23.7692 49.8048 31.0769 38 33" stroke="#FF4124" stroke-width="5.16393"/>
<rect x="23" y="34" width="5" height="8" rx="2.21311" fill="black"/>
<rect x="32" y="34" width="5" height="8" rx="2.21311" fill="black"/>
</svg>
