<svg width="254" height="15" viewBox="0 0 254 15" fill="none" xmlns="http://www.w3.org/2000/svg">
<rect width="254" height="15" fill="#F69752"/>
<path d="M251.875 0L241.375 15L226.556 15L237.056 -6.47771e-07L251.875 0Z" fill="#FFA461"/>
<path d="M166.914 0L156.414 15L141.595 15L152.095 -6.47771e-07L166.914 0Z" fill="#FFA461"/>
<path d="M81.957 0L71.457 15L56.6378 15L67.1378 -6.47771e-07L81.957 0Z" fill="#FFA461"/>
<path d="M223.555 0L213.055 15L198.235 15L208.735 -6.47771e-07L223.555 0Z" fill="#FFA461"/>
<path d="M138.598 0L128.098 15L113.278 15L123.778 -6.47771e-07L138.598 0Z" fill="#FFA461"/>
<path d="M53.6406 0L43.1406 15L28.3213 15L38.8213 -6.47771e-07L53.6406 0Z" fill="#FFA461"/>
<path d="M195.234 0L184.734 15L169.915 15L180.415 -6.47771e-07L195.234 0Z" fill="#FFA461"/>
<path d="M110.277 0L99.7773 15L84.9581 15L95.4581 -6.47771e-07L110.277 0Z" fill="#FFA461"/>
<path d="M25.3203 0L14.8203 15L0.00103503 15L10.501 -6.47771e-07L25.3203 0Z" fill="#FFA461"/>
</svg>
