<svg width="240" height="240" viewBox="0 0 240 240" fill="none" xmlns="http://www.w3.org/2000/svg">
<rect x="120" y="18" width="169" height="12" rx="6" transform="rotate(90 120 18)" fill="#AC5541"/>
<path d="M15 154.937H71L72.5 164.051H144.5L158.5 151.291L202 144C193.978 175.07 184.072 201.155 169.438 226.835C164.698 235.154 155.702 240 146.127 240H62.5213C53.979 240 45.7729 236.182 40.9351 229.142C26.2391 207.756 20.6234 188.649 15 154.937Z" fill="#C3664E"/>
<rect x="33" y="49" width="162" height="12" rx="6" fill="#C3664E"/>
<path fill-rule="evenodd" clip-rule="evenodd" d="M55 61H90.0146H102.825H124.175H136.985H172V113.088C172 126.294 161.294 137 148.088 137C141.238 137 135.061 134.12 130.701 129.505C126.413 134.116 120.293 137 113.5 137C106.707 137 100.587 134.116 96.2987 129.505C91.9392 134.12 85.7621 137 78.9124 137C65.7059 137 55 126.294 55 113.088V61Z" fill="black"/>
<mask id="mask0_2044_1820" style="mask-type:alpha" maskUnits="userSpaceOnUse" x="15" y="144" width="187" height="96">
<path d="M15 154.937H71L72.5 164.051H144.5L158.5 151.291L202 144C193.978 175.07 184.072 201.155 169.438 226.835C164.698 235.154 155.702 240 146.127 240H62.5213C53.979 240 45.7729 236.182 40.9351 229.142C26.2391 207.756 20.6234 188.649 15 154.937Z" fill="#B35948"/>
</mask>
<g mask="url(#mask0_2044_1820)">
<rect x="5" y="181" width="244" height="11" fill="#AC5541"/>
<rect x="5" y="213" width="244" height="11" fill="#AC5541"/>
</g>
<path d="M58.3197 158.5H16.75C11.9175 158.5 8 154.582 8 149.75C8 144.918 11.9175 141 16.75 141H68.406C72.4063 141 76.0217 143.384 77.5975 147.061L79.9025 152.439C81.4783 156.116 85.0937 158.5 89.094 158.5H134.194C137.232 158.5 140.105 157.119 142.002 154.747L149.998 144.753C151.895 142.381 154.768 141 157.806 141H223.75C227.754 141 231 144.246 231 148.25C231 152.254 227.754 155.5 223.75 155.5H166.399C163.596 155.5 160.922 156.676 159.027 158.743L148.473 170.257C146.578 172.324 143.904 173.5 141.101 173.5H78.1803C74.3926 173.5 70.93 171.36 69.2361 167.972L67.2639 164.028C65.57 160.64 62.1074 158.5 58.3197 158.5Z" fill="#AC5541"/>
<path fill-rule="evenodd" clip-rule="evenodd" d="M106.938 74C97.0309 74 89 82.0309 89 91.9375C89 100.491 94.9875 107.647 103 109.441V112.5C103 114.433 104.567 116 106.5 116C108.433 116 110 114.433 110 112.5C110 114.433 111.567 116 113.5 116C115.433 116 117 114.433 117 112.5C117 114.433 118.567 116 120.5 116C122.433 116 124 114.433 124 112.5V109.441C132.013 107.647 138 100.491 138 91.9375C138 82.0309 129.969 74 120.063 74H106.938ZM99.5 91.9375C99.5 89.2796 101.655 87.125 104.312 87.125C106.97 87.125 109.125 89.2796 109.125 91.9375V97.1875C109.125 99.8454 106.97 102 104.312 102C101.655 102 99.5 99.8454 99.5 97.1875V91.9375ZM121.812 87.125C119.155 87.125 117 89.2796 117 91.9375V97.1875C117 99.8454 119.155 102 121.812 102C124.47 102 126.625 99.8454 126.625 97.1875V91.9375C126.625 89.2796 124.47 87.125 121.812 87.125Z" fill="white"/>
<rect x="35" y="163" width="8" height="30" fill="black"/>
<path d="M60 175C60 186.046 50.598 195 39 195C27.402 195 18 186.046 18 175" stroke="black" stroke-width="8"/>
<path fill-rule="evenodd" clip-rule="evenodd" d="M39 168C44.5228 168 49 163.523 49 158C49 152.477 44.5228 148 39 148C33.4772 148 29 152.477 29 158C29 163.523 33.4772 168 39 168ZM39 161C40.6569 161 42 159.657 42 158C42 156.343 40.6569 155 39 155C37.3431 155 36 156.343 36 158C36 159.657 37.3431 161 39 161Z" fill="black"/>
<rect x="15.5" y="169" width="6" height="15" rx="3" transform="rotate(30 15.5 169)" fill="black"/>
<rect x="62.9922" y="169" width="6" height="15" rx="3" transform="rotate(60 62.9922 169)" fill="black"/>
<rect x="28.4922" y="176.5" width="6" height="15" rx="3" transform="rotate(120 28.4922 176.5)" fill="black"/>
<rect x="70.4922" y="181.99" width="6" height="15" rx="3" transform="rotate(150 70.4922 181.99)" fill="black"/>
<circle cx="148" cy="200" r="18" fill="#D1775F"/>
<circle cx="148" cy="200" r="10" fill="#AC5541"/>
<circle cx="92" cy="200" r="18" fill="#D1775F"/>
<circle cx="92" cy="200" r="10" fill="#AC5541"/>
<path fill-rule="evenodd" clip-rule="evenodd" d="M179 116C176.791 116 175 117.791 175 120C175 122.209 176.791 124 179 124H183L183 141H191L191 124H197V141H205V124H211V141H219V124H223C225.209 124 227 122.209 227 120C227 117.791 225.209 116 223 116H179Z" fill="#AC5541"/>
<circle cx="114" cy="14" r="13" fill="#C3664E"/>
</svg>
