<svg width="60" height="60" viewBox="0 0 60 60" fill="none" xmlns="http://www.w3.org/2000/svg">
<path fill-rule="evenodd" clip-rule="evenodd" d="M22.5 6C11.1782 6 2 15.1782 2 26.5C2 36.2759 8.84283 44.4536 18 46.5045V50C18 52.2091 19.7909 54 22 54C24.2091 54 26 52.2091 26 50C26 52.2091 27.7909 54 30 54C32.2091 54 34 52.2091 34 50C34 52.2091 35.7909 54 38 54C40.2091 54 42 52.2091 42 50V46.5045C51.1572 44.4536 58 36.2759 58 26.5C58 15.1782 48.8218 6 37.5 6H22.5ZM14 26.5C14 23.4624 16.4624 21 19.5 21C22.5376 21 25 23.4624 25 26.5V32.5C25 35.5376 22.5376 38 19.5 38C16.4624 38 14 35.5376 14 32.5V26.5ZM39.5 21C36.4624 21 34 23.4624 34 26.5V32.5C34 35.5376 36.4624 38 39.5 38C42.5376 38 45 35.5376 45 32.5V26.5C45 23.4624 42.5376 21 39.5 21Z" fill="#82FEFF"/>
</svg>
