<svg width="435" height="145" viewBox="0 0 435 145" fill="none" xmlns="http://www.w3.org/2000/svg">
<rect width="145" height="145" fill="#95FEFF"/>
<rect width="145" height="19" fill="#C2FFFF"/>
<path fill-rule="evenodd" clip-rule="evenodd" d="M49.9663 53.0126C49.7291 51.3103 48.2676 50 46.5 50C44.7368 50 43.2781 51.3039 43.0354 53H42.5C37.8056 53 34 56.8056 34 61.5C34 66.1944 37.8056 70 42.5 70H43.0354C43.2781 71.6961 44.7368 73 46.5 73C48.2676 73 49.7291 71.6897 49.9663 69.9874C53.362 69.8038 56.2277 67.6273 57.4143 64.6069L58.9793 66.1719C60.2015 67.3941 62.1831 67.3941 63.4053 66.1719C64.6276 64.9497 64.6276 62.9681 63.4053 61.7459L62.852 61.1926L63.4053 60.6393C64.6275 59.4171 64.6275 57.4355 63.4053 56.2133C62.1831 54.991 60.2015 54.991 58.9793 56.2133L57.2308 57.9617C55.9497 55.1672 53.198 53.1873 49.9663 53.0126Z" fill="#64F7F8"/>
<rect x="290" width="145" height="145" fill="#95FEFF"/>
<rect x="290" width="145" height="19" fill="#C2FFFF"/>
<path fill-rule="evenodd" clip-rule="evenodd" d="M333.966 103.013C333.729 101.31 332.268 100 330.5 100C328.737 100 327.278 101.304 327.035 103H326.5C321.806 103 318 106.806 318 111.5C318 116.194 321.806 120 326.5 120H327.035C327.278 121.696 328.737 123 330.5 123C332.268 123 333.729 121.69 333.966 119.987C337.362 119.804 340.228 117.627 341.414 114.607L342.979 116.172C344.202 117.394 346.183 117.394 347.405 116.172C348.628 114.95 348.628 112.968 347.405 111.746L346.852 111.193L347.405 110.639C348.628 109.417 348.628 107.435 347.405 106.213C346.183 104.991 344.201 104.991 342.979 106.213L341.231 107.962C339.95 105.167 337.198 103.187 333.966 103.013Z" fill="#64F7F8"/>
<rect x="145" width="145" height="145" fill="#95FEFF"/>
<rect x="145" width="145" height="19" fill="#C2FFFF"/>
</svg>
