<svg width="150" height="190" viewBox="0 0 150 190" fill="none" xmlns="http://www.w3.org/2000/svg">
<g clip-path="url(#clip0_2044_1918)">
<path d="M0 186.181C7.99782 137.75 30.0353 122.545 55.5722 106.255C59.1565 103.969 59.8477 99.0292 57.0267 95.8487C55.4532 94.0747 53.0851 93.2087 50.7656 93.7012C34.978 97.053 11.1457 106.71 0 122.5V186.181Z" fill="#0FD5D5"/>
<path d="M32 99.9999L39 107" stroke="#0BE0E0" stroke-width="5" stroke-linecap="round"/>
<path d="M16 108L23 115" stroke="#0BE0E0" stroke-width="5" stroke-linecap="round"/>
<path d="M2 119L9 126" stroke="#0BE0E0" stroke-width="5" stroke-linecap="round"/>
<path d="M35.08 89.1314C33.8674 90.2601 31.9686 90.0612 30.923 88.7764L24.2222 80.5431C24.0265 80.3026 23.9534 79.9849 24.0243 79.683L26.0623 71.0088C26.5122 69.0938 25.0289 67.2712 23.0631 67.3237L14.6506 67.5484C14.0308 67.565 13.4384 67.2929 13.0469 66.8119L9.5523 62.518C9.34179 62.2594 9.27407 61.9128 9.37171 61.5939L12.052 52.8397C12.4687 51.4788 11.3714 50.1305 9.95479 50.2627L0.842196 51.1136C0.510214 51.1446 0.184651 51.008 -0.0258517 50.7493L-3.5205 46.4554C-3.91195 45.9744 -4.05815 45.339 -3.91629 44.7352L-1.99079 36.5398C-1.54085 34.6248 -3.02418 32.8022 -4.98996 32.8547L-13.4025 33.0794C-14.0223 33.0959 -14.6147 32.8239 -15.0061 32.3429L-21.3965 24.491C-22.4422 23.2062 -22.2519 21.3058 -20.9013 20.3467C-1.90968 6.86097 24.4986 10.1998 39.3579 28.4575C54.2172 46.7153 52.1312 73.2614 35.08 89.1314Z" fill="#09E8E8"/>
<path d="M57.641 116.815C56.2903 117.774 56.1001 119.674 57.1457 120.959L63.8465 129.192C64.0422 129.433 64.3384 129.569 64.6483 129.561L73.5523 129.323C75.5181 129.27 77.0014 131.093 76.5515 133.008L74.626 141.203C74.4841 141.807 74.6303 142.443 75.0218 142.924L78.5164 147.218C78.7269 147.476 79.0525 147.613 79.3845 147.582L88.497 146.731C89.9136 146.599 91.011 147.947 90.5943 149.308L87.914 158.062C87.8163 158.381 87.8841 158.728 88.0946 158.986L91.5892 163.28C91.9807 163.761 92.573 164.033 93.1929 164.017L101.605 163.792C103.571 163.739 105.055 165.562 104.605 167.477L102.679 175.672C102.537 176.276 102.683 176.912 103.075 177.393L109.465 185.245C110.511 186.529 112.41 186.728 113.622 185.6C130.673 169.73 132.759 143.183 117.9 124.925C103.041 106.668 76.6326 103.329 57.641 116.815Z" fill="#09E8E8"/>
<path d="M46.3858 93.0543C44.7456 92.9982 43.5595 91.5051 43.7325 89.8412L44.83 79.2862C44.8626 78.9729 45.0368 78.6921 45.3009 78.5268L52.802 73.8337C54.4789 72.7845 54.7264 70.4043 53.3002 69.042L47.2773 63.2893C46.828 62.8601 46.6025 62.2404 46.6676 61.6138L47.2394 56.115C47.2744 55.7782 47.4727 55.4806 47.7674 55.3224L55.7852 51.0177C57.0438 50.342 57.2268 48.5823 56.1334 47.6693L49.168 41.8532C48.9119 41.6394 48.779 41.3084 48.814 40.9717L49.3858 35.4728C49.451 34.8462 49.7993 34.2844 50.3277 33.9538L57.4095 29.523C59.0864 28.4738 59.3339 26.0937 57.9077 24.7314L51.8848 18.9787C51.4355 18.5495 51.21 17.9298 51.2751 17.3032L52.321 7.24539C52.494 5.58152 53.9628 4.35627 55.5805 4.62882C78.4119 8.47539 94.5912 29.5203 92.1503 52.9945C89.7094 76.4688 69.5349 93.846 46.3858 93.0543Z" fill="#09E8E8"/>
<path d="M56.1655 105.062C55.8821 106.711 57.0753 108.198 58.7078 108.363L69.3113 109.433C69.6137 109.463 69.9141 109.35 70.1261 109.127L76.3169 102.598C77.6601 101.181 79.9423 101.412 80.9661 103.067L85.4288 110.283C85.752 110.805 86.2938 111.146 86.8987 111.207L92.4395 111.766C92.7651 111.799 93.0867 111.665 93.2987 111.41L99.1886 104.312C100.092 103.223 101.783 103.393 102.443 104.64L106.75 112.767C106.905 113.059 107.193 113.254 107.518 113.287L113.059 113.846C113.664 113.907 114.265 113.681 114.689 113.234L120.544 107.059C121.887 105.643 124.169 105.873 125.193 107.528L129.656 114.744C129.979 115.267 130.521 115.607 131.126 115.668L141.25 116.69C142.883 116.854 144.357 115.636 144.419 113.965C145.281 90.6841 128.014 70.4731 104.597 68.1108C81.1796 65.7485 60.1126 82.0925 56.1655 105.062Z" fill="#09E8E8"/>
<ellipse cx="17.9672" cy="18.0395" rx="17.9672" ry="18.0395" transform="matrix(0.631094 0.775464 -0.775205 0.631412 45.5352 55.0703)" fill="#08DBDB"/>
<ellipse cx="17.9672" cy="18.0395" rx="17.9672" ry="18.0395" transform="matrix(0.631094 0.775464 -0.775205 0.631412 68.2617 82.9883)" fill="#08DBDB"/>
<ellipse cx="17.9672" cy="18.0395" rx="17.9672" ry="18.0395" transform="matrix(0.631094 0.775464 -0.775205 0.631412 69.3047 58.9277)" fill="#0BE0E0"/>
</g>
<defs>
<clipPath id="clip0_2044_1918">
<rect width="150" height="190" fill="white"/>
</clipPath>
</defs>
</svg>
