<svg width="240" height="300" viewBox="0 0 240 300" fill="none" xmlns="http://www.w3.org/2000/svg">
<g clip-path="url(#clip0_2044_1919)">
<path d="M-0.0195312 294.193C12.8934 215.998 48.4741 191.447 89.7049 165.148C95.4919 161.456 96.6079 153.481 92.0532 148.345C89.5128 145.481 85.6893 144.083 81.9443 144.878C56.4544 150.29 17.9758 165.882 -0.0195312 191.375V294.193Z" fill="#0FD5D5"/>
<path d="M51.6445 155.049L62.9464 166.351" stroke="#0BE0E0" stroke-width="8.07278" stroke-linecap="round"/>
<path d="M25.8125 167.965L37.1144 179.267" stroke="#0BE0E0" stroke-width="8.07278" stroke-linecap="round"/>
<path d="M3.21094 185.725L14.5128 197.027" stroke="#0BE0E0" stroke-width="8.07278" stroke-linecap="round"/>
<path d="M56.7643 137.498C54.8065 139.321 51.7396 139 50.0507 136.925L39.2103 123.61C38.8948 123.223 38.7765 122.711 38.8899 122.224L42.154 108.216C42.873 105.13 40.4844 102.196 37.3169 102.274L23.7291 102.61C22.7301 102.635 21.776 102.196 21.145 101.421L15.4888 94.4736C15.1495 94.0568 15.0398 93.4985 15.1963 92.9843L19.4959 78.8536C20.1633 76.66 18.3959 74.4891 16.1125 74.6979L1.40356 76.043C0.868311 76.0919 0.343801 75.8713 0.00445475 75.4545L-5.65177 68.5071C-6.28268 67.7322 -6.51927 66.7088 -6.29251 65.7356L-3.20815 52.4982C-2.48913 49.4123 -4.87771 46.4785 -8.04526 46.5568L-21.6331 46.8931C-22.6321 46.9178 -23.5862 46.4786 -24.2171 45.7037L-34.5574 33.0029C-36.2464 30.9284 -35.9392 27.86 -33.7571 26.3126C-3.1642 4.61848 39.4392 10.0933 63.464 39.6025C87.4888 69.1116 84.211 111.94 56.7643 137.498Z" fill="#09E8E8"/>
<path d="M93.0498 182.069C90.8677 183.617 90.5606 186.685 92.2495 188.759L103.09 202.075C103.405 202.462 103.882 202.682 104.382 202.669L118.762 202.313C121.929 202.235 124.318 205.169 123.599 208.255L120.514 221.492C120.288 222.465 120.524 223.489 121.155 224.264L126.811 231.211C127.151 231.628 127.675 231.849 128.21 231.8L142.919 230.455C145.203 230.246 146.97 232.417 146.303 234.61L142.003 248.741C141.847 249.255 141.956 249.813 142.296 250.23L147.952 257.178C148.583 257.953 149.537 258.392 150.536 258.367L164.124 258.031C167.291 257.952 169.68 260.886 168.961 263.972L165.877 277.21C165.65 278.183 165.886 279.206 166.517 279.981L176.858 292.682C178.547 294.756 181.613 295.078 183.571 293.255C211.018 267.696 214.295 224.868 190.27 195.358C166.246 165.849 123.643 160.375 93.0498 182.069Z" fill="#09E8E8"/>
<path d="M74.9207 143.71C72.2473 143.614 70.306 141.219 70.5786 138.557L72.3284 121.477C72.3793 120.98 72.6575 120.534 73.0818 120.271L85.2956 112.673C87.9861 110.999 88.3716 107.236 86.0764 105.051L76.2306 95.681C75.5068 94.9921 75.1426 94.0069 75.2445 93.0128L76.1575 84.1007C76.2123 83.566 76.5295 83.0936 77.0037 82.8406L90.0359 75.889C92.059 74.8099 92.3443 72.025 90.5821 70.5581L79.2301 61.1084C78.817 60.7646 78.6022 60.2377 78.6569 59.703L79.5699 50.7909C79.6718 49.7968 80.2281 48.9059 81.0766 48.3781L92.6179 41.1988C95.3083 39.5252 95.6939 35.7616 93.3987 33.5773L83.5529 24.2069C82.829 23.518 82.4649 22.5328 82.5667 21.5387L84.2358 5.24623C84.5085 2.58507 86.8953 0.632615 89.5325 1.08143C126.505 7.37378 152.759 41.3702 148.881 79.2244C145.003 117.079 112.401 145.045 74.9207 143.71Z" fill="#09E8E8"/>
<path d="M90.6489 163.03C90.2001 165.667 92.1526 168.054 94.8138 168.327L111.894 170.077C112.391 170.127 112.884 169.945 113.228 169.583L123.145 159.164C125.329 156.869 129.093 157.254 130.766 159.945L137.946 171.486C138.473 172.334 139.364 172.891 140.358 172.993L149.271 173.906C149.805 173.96 150.332 173.745 150.676 173.332L160.126 161.98C161.593 160.218 164.377 160.504 165.457 162.527L172.408 175.559C172.661 176.033 173.133 176.35 173.668 176.405L182.58 177.318C183.574 177.42 184.56 177.056 185.249 176.332L194.619 166.486C196.803 164.191 200.567 164.576 202.24 167.267L209.42 178.808C209.947 179.657 210.838 180.213 211.832 180.315L228.125 181.984C230.786 182.257 233.182 180.315 233.277 177.642C234.612 140.161 206.645 107.56 168.791 103.682C130.937 99.8036 96.9412 126.057 90.6489 163.03Z" fill="#09E8E8"/>
<circle cx="69.2215" cy="123.398" r="29.062" transform="rotate(50.8493 69.2215 123.398)" fill="#08DBDB"/>
<circle cx="105.921" cy="168.472" r="29.062" transform="rotate(50.8493 105.921 168.472)" fill="#08DBDB"/>
<circle cx="107.604" cy="129.624" r="29.062" transform="rotate(50.8493 107.604 129.624)" fill="#0BE0E0"/>
</g>
<defs>
<clipPath id="clip0_2044_1919">
<rect width="240" height="300" fill="white"/>
</clipPath>
</defs>
</svg>
