<svg width="140" height="145" viewBox="0 0 140 145" fill="none" xmlns="http://www.w3.org/2000/svg">
<path d="M12.5492 6.77742C13.53 2.7911 17.1265 0 21.2317 0H119.767C123.84 0 127.418 2.74742 128.424 6.69381C141.442 57.7652 140.944 88.6952 128.412 138.28C127.412 142.239 123.828 145 119.746 145H21.1314C17.073 145 13.5038 142.271 12.4866 138.343C-0.2545 89.1314 -0.0902545 58.1484 12.5492 6.77742Z" fill="#C3664E"/>
<path d="M45.92 0H95.049C101.788 57.4911 101.511 89.1987 95.049 145H45.92C39.3197 89.6392 39.4004 57.8639 45.92 0Z" fill="#C3664E"/>
<mask id="mask0_2043_2695" style="mask-type:alpha" maskUnits="userSpaceOnUse" x="41" y="0" width="59" height="145">
<path d="M45.92 0H95.049C101.788 57.4911 101.511 89.1987 95.049 145H45.92C39.3197 89.6392 39.4004 57.8639 45.92 0Z" fill="#F48059"/>
</mask>
<g mask="url(#mask0_2043_2695)">
<path d="M49.518 149C43.4531 91.1483 43.5283 56.4913 49.5384 -4H91.4448C97.6416 56.0785 97.3953 90.6664 91.4406 149H49.518Z" fill="#C3664E" stroke="#AC5541" stroke-width="8"/>
</g>
<path d="M135.603 121.759C135.239 123.641 133.592 125 131.675 125L8.32466 125C6.4081 125 4.76086 123.641 4.39729 121.759L0.919466 103.759C0.442629 101.291 2.3333 99 4.84683 99L135.153 99C137.667 99 139.557 101.291 139.081 103.759L135.603 121.759Z" fill="black"/>
<circle cx="30.5" cy="111.5" r="4.5" fill="#FDA006"/>
<circle cx="70.5" cy="111.5" r="4.5" fill="#FDA006"/>
<circle cx="110.5" cy="111.5" r="4.5" fill="#FDA006"/>
<path d="M4.39729 24.2412C4.76087 22.3594 6.4081 21 8.32466 21L131.675 21C133.592 21 135.239 22.3595 135.603 24.2412L139.081 42.2412C139.557 44.7091 137.667 47 135.153 47L4.84683 47C2.3333 47 0.442633 44.709 0.919461 42.2412L4.39729 24.2412Z" fill="black"/>
<circle cx="109.5" cy="34.5" r="4.5" transform="rotate(-180 109.5 34.5)" fill="#FDA006"/>
<circle cx="69.5" cy="34.5" r="4.5" transform="rotate(-180 69.5 34.5)" fill="#FDA006"/>
<circle cx="29.5" cy="34.5" r="4.5" transform="rotate(-180 29.5 34.5)" fill="#FDA006"/>
</svg>
