<svg width="190" height="60" viewBox="0 0 190 60" fill="none" xmlns="http://www.w3.org/2000/svg">
<path d="M0 10C0 7.23858 2.23858 5 5 5H185C187.761 5 190 7.23858 190 10V50C190 52.7614 187.761 55 185 55H5C2.23858 55 0 52.7614 0 50V10Z" fill="#C3664E"/>
<rect x="34" y="12" width="68" height="8" rx="4" fill="#AC5541"/>
<rect x="9" y="12" width="18" height="8" rx="4" fill="#AC5541"/>
<rect x="129" y="40" width="42" height="8" rx="4" fill="#AC5541"/>
<rect x="45" width="60" height="15" rx="5" transform="rotate(90 45 0)" fill="#FFA461"/>
<mask id="mask0_2043_2691" style="mask-type:alpha" maskUnits="userSpaceOnUse" x="30" y="0" width="15" height="60">
<rect x="45" width="60" height="15" rx="5" transform="rotate(90 45 0)" fill="#FFBF9A"/>
</mask>
<g mask="url(#mask0_2043_2691)">
<path d="M45 59.969L30 52.2861L30 41.4427L45 49.1257L45 59.969Z" fill="#F69752"/>
<path d="M45 39.248L30 31.565L30 20.7217L45 28.4046L45 39.248Z" fill="#F69752"/>
<path d="M45 18.5264L30 10.8435L30 0.000126833L45 7.68305L45 18.5264Z" fill="#F69752"/>
</g>
<rect x="160" width="60" height="15" rx="5" transform="rotate(90 160 0)" fill="#FFA461"/>
<mask id="mask1_2043_2691" style="mask-type:alpha" maskUnits="userSpaceOnUse" x="145" y="0" width="15" height="60">
<rect x="160" width="60" height="15" rx="5" transform="rotate(90 160 0)" fill="#FFBF9A"/>
</mask>
<g mask="url(#mask1_2043_2691)">
<path d="M160 59.969L145 52.2861L145 41.4427L160 49.1257L160 59.969Z" fill="#F69752"/>
<path d="M160 39.248L145 31.565L145 20.7217L160 28.4046L160 39.248Z" fill="#F69752"/>
<path d="M160 18.5264L145 10.8435L145 0.000126833L160 7.68305L160 18.5264Z" fill="#F69752"/>
</g>
</svg>
