<svg width="110" height="110" viewBox="0 0 110 110" fill="none" xmlns="http://www.w3.org/2000/svg">
<mask id="path-1-outside-1_2043_2689" maskUnits="userSpaceOnUse" x="17" y="3" width="76" height="104" fill="black">
<rect fill="white" x="17" y="3" width="76" height="104"/>
<path fill-rule="evenodd" clip-rule="evenodd" d="M55 10C52.7909 10 51 11.7909 51 14V19V23V28V31H49C46.2386 31 44 33.2386 44 36V40.0083C32.3092 44.4464 24 55.7529 24 69C24 86.1208 37.8792 100 55 100C72.1208 100 86 86.1208 86 69C86 55.7529 77.6908 44.4464 66 40.0083V36C66 33.2386 63.7614 31 61 31H59V28V23V19V14C59 11.7909 57.2091 10 55 10Z"/>
</mask>
<path fill-rule="evenodd" clip-rule="evenodd" d="M55 10C52.7909 10 51 11.7909 51 14V19V23V28V31H49C46.2386 31 44 33.2386 44 36V40.0083C32.3092 44.4464 24 55.7529 24 69C24 86.1208 37.8792 100 55 100C72.1208 100 86 86.1208 86 69C86 55.7529 77.6908 44.4464 66 40.0083V36C66 33.2386 63.7614 31 61 31H59V28V23V19V14C59 11.7909 57.2091 10 55 10Z" fill="black"/>
<path d="M51 31V38H58V31H51ZM44 40.0083L46.4844 46.5526L51 44.8383V40.0083H44ZM66 40.0083H59V44.8383L63.5156 46.5526L66 40.0083ZM59 31H52V38H59V31ZM58 14C58 15.6569 56.6569 17 55 17V3C48.9249 3 44 7.92487 44 14H58ZM58 19V14H44V19H58ZM58 23V19H44V23H58ZM58 28V23H44V28H58ZM58 31V28H44V31H58ZM51 24H49V38H51V24ZM49 24C42.3726 24 37 29.3726 37 36H51C51 37.1046 50.1046 38 49 38V24ZM37 36V40.0083H51V36H37ZM41.5156 33.464C27.1962 38.9 17 52.7505 17 69H31C31 58.7552 37.4221 49.9928 46.4844 46.5526L41.5156 33.464ZM17 69C17 89.9868 34.0132 107 55 107V93C41.7452 93 31 82.2548 31 69H17ZM55 107C75.9868 107 93 89.9868 93 69H79C79 82.2548 68.2548 93 55 93V107ZM93 69C93 52.7505 82.8038 38.9 68.4844 33.464L63.5156 46.5526C72.5779 49.9928 79 58.7552 79 69H93ZM73 40.0083V36H59V40.0083H73ZM73 36C73 29.3726 67.6274 24 61 24V38C59.8954 38 59 37.1046 59 36H73ZM61 24H59V38H61V24ZM52 28V31H66V28H52ZM52 23V28H66V23H52ZM52 19V23H66V19H52ZM52 14V19H66V14H52ZM55 17C53.3431 17 52 15.6569 52 14H66C66 7.92487 61.0751 3 55 3V17Z" fill="white" mask="url(#path-1-outside-1_2043_2689)"/>
<rect x="51" y="10" width="8" height="27" rx="4" fill="#F69752"/>
<rect x="51" y="14" width="8" height="5" fill="#FFA461"/>
<rect x="51" y="23" width="8" height="5" fill="#FFA461"/>
<path fill-rule="evenodd" clip-rule="evenodd" d="M49 31C46.2386 31 44 33.2386 44 36V40.0083C32.3092 44.4464 24 55.7529 24 69C24 86.1208 37.8792 100 55 100C72.1208 100 86 86.1208 86 69C86 55.7529 77.6908 44.4464 66 40.0083V36C66 33.2386 63.7614 31 61 31H49Z" fill="black"/>
</svg>
