<svg width="110" height="110" viewBox="0 0 110 110" fill="none" xmlns="http://www.w3.org/2000/svg">
<mask id="path-1-outside-1_2043_2701" maskUnits="userSpaceOnUse" x="3" y="9" width="104" height="92" fill="black">
<rect fill="white" x="3" y="9" width="104" height="92"/>
<path fill-rule="evenodd" clip-rule="evenodd" d="M10 18C10 16.8954 10.8954 16 12 16H21C22.1046 16 23 16.8954 23 18V19.1322C23.6543 19.045 24.3219 19 25 19H42H68H85C85.6781 19 86.3457 19.045 87 19.1322V18C87 16.8954 87.8954 16 89 16H98C99.1046 16 100 16.8954 100 18V34V81V92C100 93.1046 99.1046 94 98 94H89C87.8954 94 87 93.1046 87 92V91H68H42H23V92C23 93.1046 22.1046 94 21 94H12C10.8954 94 10 93.1046 10 92V81V34V18Z"/>
</mask>
<path fill-rule="evenodd" clip-rule="evenodd" d="M10 18C10 16.8954 10.8954 16 12 16H21C22.1046 16 23 16.8954 23 18V19.1322C23.6543 19.045 24.3219 19 25 19H42H68H85C85.6781 19 86.3457 19.045 87 19.1322V18C87 16.8954 87.8954 16 89 16H98C99.1046 16 100 16.8954 100 18V34V81V92C100 93.1046 99.1046 94 98 94H89C87.8954 94 87 93.1046 87 92V91H68H42H23V92C23 93.1046 22.1046 94 21 94H12C10.8954 94 10 93.1046 10 92V81V34V18Z" fill="#FFD705"/>
<path d="M23 19.1322H16V27.1267L23.9245 26.0709L23 19.1322ZM87 19.1322L86.0755 26.0709L94 27.1267V19.1322H87ZM87 91H94V84H87V91ZM23 91V84H16V91H23ZM12 9C7.02944 9 3 13.0294 3 18H17C17 20.7614 14.7614 23 12 23V9ZM21 9H12V23H21V9ZM30 18C30 13.0294 25.9706 9 21 9V23C18.2386 23 16 20.7614 16 18H30ZM30 19.1322V18H16V19.1322H30ZM25 12C24.0119 12 23.0354 12.0656 22.0755 12.1935L23.9245 26.0709C24.2731 26.0244 24.6319 26 25 26V12ZM42 12H25V26H42V12ZM68 12H42V26H68V12ZM85 12H68V26H85V12ZM87.9245 12.1935C86.9646 12.0656 85.9881 12 85 12V26C85.3681 26 85.7269 26.0244 86.0755 26.0709L87.9245 12.1935ZM94 19.1322V18H80V19.1322H94ZM94 18C94 20.7614 91.7614 23 89 23V9C84.0294 9 80 13.0294 80 18H94ZM89 23H98V9H89V23ZM98 23C95.2386 23 93 20.7614 93 18H107C107 13.0294 102.971 9 98 9V23ZM93 18V34H107V18H93ZM93 34V81H107V34H93ZM93 81V92H107V81H93ZM93 92C93 89.2386 95.2386 87 98 87V101C102.971 101 107 96.9706 107 92H93ZM98 87H89V101H98V87ZM89 87C91.7614 87 94 89.2386 94 92H80C80 96.9706 84.0294 101 89 101V87ZM94 92V91H80V92H94ZM68 98H87V84H68V98ZM42 98H68V84H42V98ZM23 98H42V84H23V98ZM30 92V91H16V92H30ZM21 101C25.9706 101 30 96.9706 30 92H16C16 89.2386 18.2386 87 21 87V101ZM12 101H21V87H12V101ZM3 92C3 96.9706 7.02943 101 12 101V87C14.7614 87 17 89.2386 17 92H3ZM3 81V92H17V81H3ZM3 34V81H17V34H3ZM3 18V34H17V18H3Z" fill="white" mask="url(#path-1-outside-1_2043_2701)"/>
<path d="M10 34C10 25.7157 16.7157 19 25 19H85C93.2843 19 100 25.7157 100 34V81C100 86.5229 95.5229 91 90 91H20C14.4772 91 10 86.5229 10 81V34Z" fill="#C3664E"/>
<path d="M42 19H68V91H42V19Z" fill="#AC5541"/>
<path d="M10 18C10 16.8954 10.8954 16 12 16H21C22.1046 16 23 16.8954 23 18V92C23 93.1046 22.1046 94 21 94H12C10.8954 94 10 93.1046 10 92V18Z" fill="#FFD705"/>
<path d="M98 53C99.1046 53 100 53.8954 100 55L100 64C100 65.1046 99.1046 66 98 66L12 66C10.8954 66 10 65.1046 10 64L10 55C10 53.8954 10.8954 53 12 53L98 53Z" fill="#FFD705"/>
<path d="M87 18C87 16.8954 87.8954 16 89 16H98C99.1046 16 100 16.8954 100 18V92C100 93.1046 99.1046 94 98 94H89C87.8954 94 87 93.1046 87 92V18Z" fill="#FFD705"/>
<rect x="42" y="46" width="26" height="26" rx="4" fill="#FFD705"/>
<path fill-rule="evenodd" clip-rule="evenodd" d="M58 61.0004C59.2144 60.0882 60 58.6358 60 57C60 54.2386 57.7614 52 55 52C52.2386 52 50 54.2386 50 57C50 58.6358 50.7856 60.0882 52 61.0004V64C52 65.6569 53.3431 67 55 67C56.6569 67 58 65.6569 58 64V61.0004Z" fill="#FDA006"/>
</svg>
