<svg width="110" height="110" viewBox="0 0 110 110" fill="none" xmlns="http://www.w3.org/2000/svg">
<mask id="path-1-outside-1_2043_2703" maskUnits="userSpaceOnUse" x="14" y="3" width="82" height="104" fill="black">
<rect fill="white" x="14" y="3" width="82" height="104"/>
<path fill-rule="evenodd" clip-rule="evenodd" d="M66 21C66 25.664 63.0974 29.65 59 31.2501V32.2328C75.8927 34.2125 89 48.5756 89 66C89 84.7777 73.7777 100 55 100C36.2223 100 21 84.7777 21 66C21 48.5756 34.1073 34.2125 51 32.2328V31.2501C46.9026 29.65 44 25.664 44 21C44 14.9249 48.9249 10 55 10C61.0751 10 66 14.9249 66 21Z"/>
</mask>
<path fill-rule="evenodd" clip-rule="evenodd" d="M66 21C66 25.664 63.0974 29.65 59 31.2501V32.2328C75.8927 34.2125 89 48.5756 89 66C89 84.7777 73.7777 100 55 100C36.2223 100 21 84.7777 21 66C21 48.5756 34.1073 34.2125 51 32.2328V31.2501C46.9026 29.65 44 25.664 44 21C44 14.9249 48.9249 10 55 10C61.0751 10 66 14.9249 66 21Z" fill="white"/>
<path d="M59 31.2501L56.4536 24.7297L52 26.469V31.2501H59ZM59 32.2328H52V38.4604L58.1852 39.1852L59 32.2328ZM51 32.2328L51.8148 39.1852L58 38.4604V32.2328H51ZM51 31.2501H58V26.469L53.5464 24.7297L51 31.2501ZM61.5464 37.7705C68.2392 35.1568 73 28.643 73 21H59C59 22.6849 57.9555 24.1431 56.4536 24.7297L61.5464 37.7705ZM66 32.2328V31.2501H52V32.2328H66ZM58.1852 39.1852C71.5927 40.7565 82 52.1679 82 66H96C96 44.9832 80.1927 27.6686 59.8148 25.2804L58.1852 39.1852ZM82 66C82 80.9117 69.9117 93 55 93V107C77.6437 107 96 88.6437 96 66H82ZM55 93C40.0883 93 28 80.9117 28 66H14C14 88.6437 32.3563 107 55 107V93ZM28 66C28 52.1679 38.4073 40.7565 51.8148 39.1852L50.1852 25.2804C29.8073 27.6686 14 44.9832 14 66H28ZM44 31.2501V32.2328H58V31.2501H44ZM37 21C37 28.643 41.7608 35.1568 48.4536 37.7705L53.5464 24.7297C52.0445 24.1431 51 22.6849 51 21H37ZM55 3C45.0589 3 37 11.0589 37 21H51C51 18.7909 52.7909 17 55 17V3ZM73 21C73 11.0589 64.9411 3 55 3V17C57.2091 17 59 18.7909 59 21H73Z" fill="white" mask="url(#path-1-outside-1_2043_2703)"/>
<path fill-rule="evenodd" clip-rule="evenodd" d="M55 32C61.0751 32 66 27.0751 66 21C66 14.9249 61.0751 10 55 10C48.9249 10 44 14.9249 44 21C44 27.0751 48.9249 32 55 32ZM55 26C57.7614 26 60 23.7614 60 21C60 18.2386 57.7614 16 55 16C52.2386 16 50 18.2386 50 21C50 23.7614 52.2386 26 55 26Z" fill="#FDA006"/>
<path d="M59 36L51 36L51 28C51 25.7909 52.7909 24 55 24C57.2091 24 59 25.7909 59 28L59 36Z" fill="#FFD705"/>
<circle cx="55" cy="66" r="34" fill="#FFD705"/>
<circle cx="55" cy="66" r="24" fill="#FFF1D5"/>
<mask id="mask0_2043_2703" style="mask-type:alpha" maskUnits="userSpaceOnUse" x="44" y="55" width="22" height="22">
<path d="M63.0199 55.4187C64.6121 54.8455 66.1523 56.3856 65.5791 57.9779L60.9735 70.7712C60.7716 71.3321 60.33 71.7737 59.7692 71.9756L46.9758 76.5812C45.3836 77.1544 43.8434 75.6142 44.4166 74.022L49.0222 61.2286C49.2241 60.6678 49.6657 60.2262 50.2265 60.0243L63.0199 55.4187Z" fill="#D9D9D9"/>
</mask>
<g mask="url(#mask0_2043_2703)">
<path d="M63.0667 55.452C64.6302 54.9309 66.1177 56.4183 65.5965 57.9819L60.9282 71.9868L49.0618 60.1203L63.0667 55.452Z" fill="#FF4124"/>
<path d="M46.9265 76.6534C45.3629 77.1746 43.8755 75.6871 44.3966 74.1236L49.0649 60.1187L60.9314 71.9851L46.9265 76.6534Z" fill="#2453EC"/>
</g>
<mask id="mask1_2043_2703" style="mask-type:alpha" maskUnits="userSpaceOnUse" x="31" y="42" width="48" height="48">
<circle cx="55" cy="66" r="24" fill="white"/>
</mask>
<g mask="url(#mask1_2043_2703)">
<path d="M52 42H58V43C58 44.6569 56.6569 46 55 46C53.3431 46 52 44.6569 52 43V42Z" fill="#FDA006"/>
<path d="M31 69L31 63L32 63C33.6569 63 35 64.3431 35 66C35 67.6569 33.6569 69 32 69L31 69Z" fill="#FDA006"/>
<path d="M58 90L52 90L52 89C52 87.3431 53.3431 86 55 86C56.6569 86 58 87.3431 58 89L58 90Z" fill="#FDA006"/>
<path d="M79 63L79 69L78 69C76.3431 69 75 67.6569 75 66C75 64.3431 76.3431 63 78 63L79 63Z" fill="#FDA006"/>
</g>
</svg>
