<svg width="110" height="110" viewBox="0 0 110 110" fill="none" xmlns="http://www.w3.org/2000/svg">
<path d="M31.8301 8.96295L31.8299 8.96299C26.2431 9.97399 21.0534 12.6029 16.8281 16.53C12.6047 20.4554 9.50889 25.5238 7.85797 31.1609C6.20726 36.7974 6.05877 42.8036 7.42727 48.5216C8.79591 54.2401 11.6342 59.4695 15.6529 63.6206C15.6697 63.638 15.6867 63.6552 15.7039 63.6722L48.5972 96.2693C52.3197 99.9583 58.3265 99.9359 62.0215 96.2192L94.1278 63.9234L94.2766 63.7885C94.3564 63.7161 94.4329 63.64 94.5057 63.5605L95.3154 62.6771C95.3314 62.6596 95.3473 62.642 95.3629 62.6242C99.0985 58.3781 101.666 53.159 102.816 47.5267C103.967 41.8949 103.662 36.0382 101.93 30.5702C100.199 25.1015 97.0987 20.2062 92.9341 16.4156C88.7678 12.6234 83.6912 10.0792 78.235 9.07902C78.2038 9.07331 78.1725 9.06802 78.1412 9.06315L77.0347 8.89124C77.0155 8.88826 76.9963 8.88544 76.9771 8.88278C72.6476 8.28376 68.2489 8.67246 64.0785 10.0195C60.8335 11.0676 57.7909 12.6751 55.0689 14.764C52.1706 12.5129 48.9045 10.8111 45.4155 9.75285C41.0031 8.41459 36.3589 8.14375 31.8301 8.96295Z" fill="#FF4124" stroke="white" stroke-width="7" stroke-linecap="round" stroke-linejoin="round"/>
<path d="M32.4531 12.4071C36.4341 11.6869 40.5166 11.9245 44.3996 13.1022C48.2826 14.2799 51.8672 16.3677 54.8891 19.2118L55.0555 19.3694L55.2084 19.2261C58.0925 16.5391 61.4832 14.5358 65.1543 13.3501C68.8253 12.1643 72.6924 11.8233 76.4974 12.3498L77.6039 12.5217C82.4001 13.4008 86.8831 15.6406 90.5782 19.0039C94.2732 22.3672 97.0428 26.7287 98.5935 31.6266C100.144 36.5245 100.418 41.7765 99.3872 46.8264C98.3559 51.8763 96.0574 56.5361 92.7351 60.3123L91.9255 61.1957L91.7096 61.3915L59.5393 93.7516C57.2057 96.099 53.4119 96.1132 51.0608 93.7833L18.1675 61.1862C14.5971 57.498 12.0579 52.8327 10.8311 47.7069C9.60436 42.5811 9.73787 37.1949 11.2169 32.1446C12.6959 27.0944 15.4627 22.5774 19.2109 19.0937C22.9591 15.61 27.5424 13.2957 32.4531 12.4071Z" fill="#FF4124"/>
</svg>
