<svg width="90" height="104" viewBox="0 0 90 104" fill="none" xmlns="http://www.w3.org/2000/svg">
<path d="M33 72C30.2386 72 28 74.2386 28 77L28 99C28 101.761 30.2386 104 33 104C35.7614 104 38 101.761 38 99L38 77C38 74.2386 35.7614 72 33 72Z" fill="#FDA006"/>
<path d="M47 73C44.2386 73 42 75.2386 42 78L42 99C42 101.761 44.2386 104 47 104C49.7614 104 52 101.761 52 99L52 78C52 75.2386 49.7614 73 47 73Z" fill="#FDA006"/>
<path fill-rule="evenodd" clip-rule="evenodd" d="M54 2C68.3594 2 80 13.6406 80 28V66V69H79.7972C78.334 79.731 69.1326 88 58 88H23C10.8497 88 1 78.1503 1 66C1 61.9963 2.06947 58.2424 3.93832 55.0084L2.45871 53.8496C0.401169 52.2381 0.0395737 49.2638 1.65107 47.2062C3.26256 45.1487 6.23691 44.7871 8.29445 46.3986L10.3432 48.0032C13.9227 45.4811 18.2884 44 23 44H28V28C28 13.6406 39.6406 2 54 2Z" fill="white"/>
<rect width="12" height="21" rx="6" transform="matrix(-4.37114e-08 1 1 4.37114e-08 69 35)" fill="#FDA006"/>
<rect width="12" height="18" rx="6" transform="matrix(-1 0 0 1 60 26)" fill="black"/>
<rect x="19.5801" y="9.71948" width="17.2732" height="8.33879" rx="4.16939" fill="#0F34AF"/>
<rect x="34.4756" width="17.2732" height="8.33879" rx="4.16939" transform="rotate(75 34.4756 0)" fill="#2453EC"/>
<path d="M23 48C16.3726 48 11 53.3726 11 60C11 66.6274 16.3726 72 23 72L34 72C40.6274 72 46 66.6274 46 60C46 53.3726 40.6274 48 34 48L23 48Z" fill="#E1E1ED"/>
<path d="M80 25C80 11.7452 69.2548 1 56 1H52C38.7452 1 28 11.7452 28 25H80Z" fill="#2453EC"/>
</svg>
